<svg width="122" height="95.04" xmlns="http://www.w3.org/2000/svg"><g><path d="M6.615 16.97h18.71V0h6.544v43.374h-6.545V23.118H6.614v20.256H.07V0h6.545v16.97zM46.095 22.058a21.214 21.214 0 0 0-6.325 15.46c0 .33.006.66.017.99a21.954 21.954 0 0 0 6.484 15.353 21.763 21.763 0 0 0 7.155 4.889 23.094 23.094 0 0 0 8.966 1.7 22.673 22.673 0 0 0 16.38-6.458 21.761 21.761 0 0 0 4.882-7.06 22.93 22.93 0 0 0 1.75-9.06l-.001-.298a21.756 21.756 0 0 0-6.587-15.78 22.852 22.852 0 0 0-6.273-4.416 23.113 23.113 0 0 0-9.978-2.128c-6.352 0-11.742 2.167-16.163 6.501-.103.102-.206.204-.307.307zm3.772 15.633a19.42 19.42 0 0 0 .423 4.18c.42 1.902 1.15 3.561 2.191 4.978.253.344.525.674.813.989a11.66 11.66 0 0 0 7.672 3.699c.53.052 1.061.077 1.593.076a14.562 14.562 0 0 0 4.173-.569 11.18 11.18 0 0 0 5.092-3.163 12.637 12.637 0 0 0 3.06-5.979c.282-1.312.42-2.651.411-3.993 0-4.16-1.155-7.483-3.471-9.973a11.685 11.685 0 0 0-7.65-3.696 16.116 16.116 0 0 0-1.615-.08c-3.775 0-6.837 1.261-9.178 3.776a12.976 12.976 0 0 0-3.314 7.034c-.136.9-.203 1.81-.2 2.722z" fill-rule="evenodd"/><path d="M69.204.12l10.27 22.392L90.552.207l11.159 22.305L111.858.12h10.146l-20.541 42.163L90.546 17.03 79.512 42.283 59.02.12h10.184zM31.874 58.038V95.04h-6.557V58.038H0v-5.9h25.317V42.11h6.557v10.028h4.676v5.9h-4.676zM44.056 55.675a13.586 13.586 0 0 0-4.106 9.95c0 .26.005.52.016.778a13.95 13.95 0 0 0 4.15 9.666 13.887 13.887 0 0 0 4.506 3.1c1.839.76 3.813 1.14 5.803 1.117a14.502 14.502 0 0 0 10.475-4.13 13.902 13.902 0 0 0 3.147-4.573 14.683 14.683 0 0 0 1.093-5.925 13.91 13.91 0 0 0-4.215-10.093c-2.85-2.788-6.315-4.185-10.395-4.185-4.067 0-7.514 1.391-10.339 4.16l-.135.135zm4.047 15.949c.155.209.32.41.497.602a7.452 7.452 0 0 0 4.813 2.356c.371.04.744.06 1.117.06a9.302 9.302 0 0 0 2.67-.365 7.179 7.179 0 0 0 3.26-2.026 8.056 8.056 0 0 0 1.955-3.825c.18-.839.268-1.695.262-2.553a11.628 11.628 0 0 0-.305-2.74 8.004 8.004 0 0 0-1.912-3.637 7.452 7.452 0 0 0-4.813-2.357c-.37-.04-.744-.06-1.117-.059a8.816 8.816 0 0 0-2.788.423 7.322 7.322 0 0 0-3.086 1.993 8.343 8.343 0 0 0-2.124 4.528c-.084.567-.126 1.14-.124 1.713 0 2.402.566 4.367 1.695 5.887z" fill-rule="evenodd"/></g></svg>