<svg width="43.952" height="43.952" xmlns="http://www.w3.org/2000/svg"><path d="M21.976 0C9.841 0 0 9.84 0 21.976c0 12.135 9.84 21.976 21.976 21.976 12.137-.001 21.975-9.84 21.976-21.976C43.951 9.84 34.112.001 21.976 0zm12.46 28.192c.04-.337.069-.675.083-1.013l.01-.228c.053-1.178.066-1.748.066-4.975 0-3.026-.011-3.715-.056-4.761l-.02-.442a13.327 13.327 0 0 0-.072-.918 9.563 9.563 0 0 0-.166-1 7.859 7.859 0 0 0-.348-1.145 6.183 6.183 0 0 0-1.456-2.235 6.186 6.186 0 0 0-2.235-1.456c-.803-.311-1.72-.524-3.063-.585-1.346-.062-1.776-.077-5.203-.077-3.427 0-3.857.015-5.203.076a13.33 13.33 0 0 0-.918.072 9.588 9.588 0 0 0-1 .166c-.39.087-.772.204-1.145.349a6.181 6.181 0 0 0-2.235 1.455 6.182 6.182 0 0 0-1.456 2.235 7.854 7.854 0 0 0-.329 1.063c-.07.302-.13.627-.174.988A13.076 13.076 0 0 0 9.423 17c-.048 1.059-.063 1.626-.066 4.07v.905c0 3.026.011 3.715.057 4.762l.02.441c.013.307.037.614.071.919.042.365.098.694.167.999.086.39.203.773.348 1.145a6.185 6.185 0 0 0 1.455 2.235 6.182 6.182 0 0 0 2.236 1.456c.802.312 1.72.525 3.062.586 1.218.056 1.685.073 4.298.076h.905c3.428 0 3.857-.014 5.203-.076a11.034 11.034 0 0 0 1.918-.238c.39-.087.773-.203 1.145-.348a6.452 6.452 0 0 0 3.69-3.691 8.323 8.323 0 0 0 .504-2.05z" fill="#f8f8f8" fill-rule="evenodd"/></svg>