<svg width="43.952" height="43.952" xmlns="http://www.w3.org/2000/svg"><path d="M22.362 43.947V26.84h-4.721v-5.503h4.721v-4.049a8.988 8.988 0 0 1 .481-3.024c.863-2.424 2.834-3.853 5.456-4.163a9.517 9.517 0 0 1 1.12-.065c1.837 0 3.44.126 4.081.198l.151.019v4.908h-2.889a5.153 5.153 0 0 0-.933.076c-1.472.272-1.787 1.253-1.787 2.596v3.504h5.45l-.71 5.503h-4.74v16.263a21.988 21.988 0 0 0 15.91-21.127C43.951 9.84 34.112.001 21.976 0 9.841 0 0 9.84 0 21.976c0 12.135 9.84 21.976 21.976 21.976.086 0 .172 0 .258-.002l.128-.003z" fill="#f8f8f8" fill-rule="evenodd"/></svg>